<?xml version="1.0" encoding="UTF-8" standalone="no"?>
<!DOCTYPE svg PUBLIC "-//W3C//DTD SVG 1.1//EN" "http://www.w3.org/Graphics/SVG/1.1/DTD/svg11.dtd">
<svg version="1.1" xmlns="http://www.w3.org/2000/svg" xmlns:xlink="http://www.w3.org/1999/xlink" preserveAspectRatio="xMidYMid meet" viewBox="0 0 400 300" width="400" height="300"><defs><path d="M270.17 0.47L275.87 1.05L281.51 1.85L287.07 2.87L292.55 4.11L297.96 5.56L303.27 7.21L308.49 9.06L313.62 11.11L318.64 13.36L323.56 15.79L328.37 18.4L333.07 21.19L337.64 24.15L342.1 27.29L346.42 30.59L350.61 34.05L354.66 37.66L358.57 41.43L362.34 45.34L365.95 49.39L369.41 53.58L372.71 57.9L375.85 62.36L378.81 66.93L381.6 71.63L384.21 76.44L386.64 81.36L388.89 86.38L390.94 91.51L392.79 96.73L394.44 102.04L395.89 107.45L397.13 112.93L398.15 118.49L398.95 124.13L399.53 129.83L399.88 135.6L400 141.43L400 160.69L399.88 166.43L399.54 172.11L398.97 177.73L398.18 183.28L397.17 188.76L395.95 194.17L394.53 199.49L392.9 204.72L391.07 209.86L389.05 214.91L386.84 219.86L384.45 224.71L381.88 229.45L379.13 234.07L376.21 238.58L373.12 242.96L369.87 247.22L366.46 251.35L362.9 255.34L359.2 259.2L355.34 262.9L351.35 266.46L347.22 269.87L342.96 273.12L338.58 276.21L334.07 279.13L329.45 281.88L324.71 284.45L319.86 286.84L314.91 289.05L309.86 291.07L304.72 292.9L299.49 294.53L294.17 295.95L288.76 297.17L283.28 298.18L277.73 298.97L272.11 299.54L266.43 299.88L260.69 300L225 300L225 254.93L255.01 254.95L259.13 254.87L263.21 254.62L267.25 254.21L271.23 253.65L275.16 252.93L279.04 252.05L282.86 251.03L286.61 249.87L290.31 248.56L293.93 247.11L297.48 245.53L300.96 243.81L304.36 241.97L307.68 239.99L310.91 237.9L314.06 235.69L317.12 233.35L320.08 230.91L322.95 228.36L325.71 225.7L328.37 222.93L330.93 220.07L333.37 217.11L335.71 214.05L337.92 210.9L340.02 207.67L341.99 204.35L343.84 200.95L345.56 197.48L347.14 193.93L348.59 190.3L349.9 186.61L351.07 182.85L352.09 179.04L352.97 175.16L353.69 171.23L354.26 167.25L354.67 163.21L354.92 159.13L355 155.01L355 149.1L354.91 144.81L354.65 140.56L354.23 136.36L353.64 132.21L352.89 128.12L351.97 124.08L350.91 120.11L349.69 116.19L348.33 112.35L346.82 108.58L345.17 104.88L343.38 101.26L341.46 97.72L339.4 94.26L337.22 90.9L334.92 87.62L332.49 84.44L329.94 81.35L327.28 78.37L324.51 75.49L321.63 72.72L318.65 70.06L315.56 67.51L312.38 65.08L309.1 62.78L305.74 60.6L302.28 58.54L298.74 56.62L295.12 54.83L291.42 53.18L287.65 51.67L283.81 50.31L279.89 49.09L275.92 48.03L271.88 47.11L267.79 46.36L263.64 45.77L259.44 45.35L255.19 45.09L250.9 45L185 45L185 0L258.57 0L264.4 0.12L270.17 0.47ZM131.78 299.52L125.99 298.94L120.27 298.12L114.62 297.08L109.06 295.83L103.57 294.36L98.18 292.68L92.88 290.8L87.68 288.72L82.58 286.44L77.58 283.98L72.7 281.32L67.94 278.49L63.29 275.48L58.77 272.3L54.38 268.95L50.13 265.44L46.02 261.78L42.05 257.95L38.22 253.98L34.56 249.87L31.05 245.62L27.7 241.23L24.52 236.71L21.51 232.06L18.68 227.3L16.02 222.42L13.56 217.42L11.28 212.32L9.2 207.12L7.32 201.82L5.64 196.43L4.17 190.94L2.92 185.38L1.88 179.73L1.06 174.01L0.48 168.22L0.12 162.36L0 156.44L0 141.43L0.12 135.6L0.47 129.83L1.05 124.13L1.85 118.49L2.87 112.93L4.11 107.45L5.56 102.04L7.21 96.73L9.06 91.51L11.11 86.38L13.36 81.36L15.79 76.44L18.4 71.63L21.19 66.93L24.15 62.36L27.29 57.9L30.59 53.58L34.05 49.39L37.66 45.34L41.43 41.43L45.34 37.66L49.39 34.05L53.58 30.59L57.9 27.29L62.36 24.15L66.93 21.19L71.63 18.4L76.44 15.79L81.36 13.36L86.38 11.11L91.51 9.06L96.73 7.21L102.04 5.56L107.45 4.11L112.93 2.87L118.49 1.85L124.13 1.05L129.83 0.47L135.6 0.12L141.43 0L175 0L175 45L146.91 45L142.71 45.09L138.55 45.34L134.44 45.76L130.38 46.33L126.37 47.07L122.42 47.96L118.53 49L114.7 50.2L110.93 51.53L107.24 53.01L103.62 54.62L100.07 56.37L96.61 58.26L93.23 60.27L89.93 62.4L86.72 64.66L83.61 67.04L80.59 69.53L77.67 72.14L74.85 74.85L72.13 77.67L69.53 80.59L67.04 83.61L64.66 86.72L62.4 89.93L60.27 93.23L58.26 96.61L56.37 100.08L54.62 103.62L53.01 107.24L51.53 110.94L50.19 114.7L49 118.53L47.96 122.42L47.07 126.37L46.33 130.38L45.75 134.44L45.34 138.55L45.08 142.71L45 146.91L45 152.94L45.08 157.14L45.34 161.3L45.75 165.41L46.33 169.47L47.07 173.48L47.96 177.43L49 181.33L50.19 185.15L51.53 188.92L53.01 192.61L54.62 196.23L56.37 199.78L58.25 203.25L60.26 206.63L62.4 209.93L64.66 213.14L67.03 216.25L69.53 219.27L72.13 222.19L74.84 225.01L77.66 227.73L80.58 230.33L83.6 232.83L86.71 235.2L89.92 237.46L93.22 239.6L96.6 241.61L100.07 243.5L103.61 245.25L107.23 246.87L110.93 248.35L114.69 249.68L118.52 250.88L122.41 251.92L126.36 252.81L130.37 253.55L134.43 254.13L138.54 254.55L142.7 254.81L146.9 254.89L185 254.91L185 173L100 173L100 124L300 124L300 173L250.01 173L250.01 150L215 150L215 300L143.56 300L137.64 299.88L131.78 299.52Z" id="a35osSeXS8"></path><clipPath id="clipa1ZoBuU8g"><use xlink:href="#a35osSeXS8" opacity="1"></use></clipPath></defs><g><g><g><use xlink:href="#a35osSeXS8" opacity="1" fill="#43007f" fill-opacity="1"></use><g clip-path="url(#clipa1ZoBuU8g)"><use xlink:href="#a35osSeXS8" opacity="1" fill-opacity="0" stroke="#000000" stroke-width="4" stroke-opacity="1"></use></g></g></g></g></svg>